HIERARCHY
ROOT Hips
{
  OFFSET 43.0842 91.1655 101.099
  CHANNELS 6 Xposition Yposition Zposition Zrotation Xrotation Yrotation
  JOINT LeftUpLeg
  {
    OFFSET 8.64259 1.95398 -2.38835
    CHANNELS 3 Zrotation Xrotation Yrotation
    JOINT LeftLeg
    {
      OFFSET 43.7702 0 0
      CHANNELS 3 Zrotation Xrotation Yrotation
      JOINT LeftFoot
      {
        OFFSET 40.6238 0 0
        CHANNELS 3 Zrotation Xrotation Yrotation
        JOINT LeftToeBase
        {
          OFFSET 12.7242 0 0
          CHANNELS 3 Zrotation Xrotation Yrotation
          End Site
          {
            OFFSET 0 0 0
          }
        }
      }
    }
  }
  JOINT RightUpLeg
  {
    OFFSET -8.2249 1.95398 -2.59336
    CHANNELS 3 Zrotation Xrotation Yrotation
    JOINT RightLeg
    {
      OFFSET 43.5653 0 0
      CHANNELS 3 Zrotation Xrotation Yrotation
      JOINT RightFoot
      {
        OFFSET 40.6238 0 0
        CHANNELS 3 Zrotation Xrotation Yrotation
        JOINT RightToeBase
        {
          OFFSET 12.7242 0 0
          CHANNELS 3 Zrotation Xrotation Yrotation
          End Site
          {
            OFFSET 0 0 0
          }
        }
      }
    }
  }
  JOINT Spine
  {
    OFFSET 0.165834 0.87714 6.61349
    CHANNELS 3 Zrotation Xrotation Yrotation
    JOINT Spine1
    {
      OFFSET 7.38963 1.71661e-005 0
      CHANNELS 3 Zrotation Xrotation Yrotation
      JOINT Spine2
      {
        OFFSET 11.9445 1.14441e-005 0
        CHANNELS 3 Zrotation Xrotation Yrotation
        JOINT Spine3
        {
          OFFSET 14.7254 4.19617e-005 0
          CHANNELS 3 Zrotation Xrotation Yrotation
          JOINT Spine4
          {
            OFFSET 10.9679 0 0
            CHANNELS 3 Zrotation Xrotation Yrotation
            JOINT RightShoulder
            {
              OFFSET 2.46616 -1.6653 3.69651
              CHANNELS 3 Zrotation Xrotation Yrotation
              JOINT RightArm
              {
                OFFSET 13.0012 0 0
                CHANNELS 3 Zrotation Xrotation Yrotation
                JOINT RightForeArm
                {
                  OFFSET 28.7848 1.52588e-005 0
                  CHANNELS 3 Zrotation Xrotation Yrotation
                  JOINT RightHand
                  {
                    OFFSET 26.5688 1.52588e-005 0
                    CHANNELS 3 Zrotation Xrotation Yrotation
                    End Site
                    {
                      OFFSET 0 0 0
                    }
                  }
                }
              }
            }
            JOINT LeftShoulder
            {
              OFFSET 2.38034 -1.29275 -3.7523
              CHANNELS 3 Zrotation Xrotation Yrotation
              JOINT LeftArm
              {
                OFFSET 16.3182 6.10351e-005 0
                CHANNELS 3 Zrotation Xrotation Yrotation
                JOINT LeftForeArm
                {
                  OFFSET 27.0901 0 0
                  CHANNELS 3 Zrotation Xrotation Yrotation
                  JOINT LeftHand
                  {
                    OFFSET 24.5451 1.52588e-005 0
                    CHANNELS 3 Zrotation Xrotation Yrotation
                    End Site
                    {
                      OFFSET 0 0 0
                    }
                  }
                }
              }
            }
            JOINT Neck
            {
              OFFSET 5.0226 -0.0266342 0
              CHANNELS 3 Zrotation Xrotation Yrotation
              JOINT Head
              {
                OFFSET 6.69364 2.86102e-005 0
                CHANNELS 3 Zrotation Xrotation Yrotation
                End Site
                {
                  OFFSET 0 0 0
                }
              }
            }
          }
        }
      }
    }
  }
}
MOTION
Frames:	16
Frame Time:	0.0333333
-47.0408 87.1646 22.0797 95.7579 7.27023 91.6014 -166.211 14.8617 100.597 -49.0765 28.4108 -3.33519 65.0302 7.35431 26.4052 37.9203 7.31109 9.04306 170.053 22.7067 79.4042 -35.5501 -1.43204 0.935283 63.1501 -1.84049 -2.42273 32.7323 -2.98215 2.48158 -0.0373405 7.65168 -89.9816 11.5705 -0.0656661 0.0434548 -0.10042 -0.0636674 0.0462942 -22.6356 -0.0756886 0.0217108 -2.62294 -0.0756738 0.0217121 93.6148 -48.71 -95.4804 -0.616704 24.3592 -20.9528 -4.17755 -1.00804 -83.1595 -2.48794 0.994784 4.67624 -90.5667 -44.2771 76.5223 -11.0814 6.36263 -69.8343 5.60407 14.9823 -103.898 16.1947 1.76392 1.68331 -20.3978 -20.7861 -12.622 4.66995 -22.2601 -11.1312 
-46.9849 87.1045 22.1305 95.8518 7.3092 91.4555 -166.564 14.6706 100.329 -49.2237 27.9426 -3.07428 65.1112 7.51579 26.2264 37.8586 7.01164 9.47152 169.98 22.73 79.3102 -35.8008 -1.75437 0.915102 63.4092 -2.02923 -2.7906 33.2405 -3.19601 2.31239 -0.0497072 7.65726 -89.9693 11.5594 -0.0845892 0.0698966 -0.11155 -0.0814141 0.0735362 -22.6467 -0.101667 0.0412457 -2.63408 -0.101673 0.0412426 93.3748 -48.5972 -95.8759 -0.32067 25.0196 -20.8137 -4.55214 -1.7314 -83.4255 -2.28796 1.05874 4.68687 -90.5515 -44.4434 76.5884 -10.9101 6.35707 -69.5819 4.37024 14.7495 -103.792 15.3632 1.62589 1.78546 -20.6376 -20.6654 -12.4357 5.23542 -22.2337 -11.3221 
-46.9451 87.0787 22.2151 95.8854 7.35404 91.3203 -166.7 14.5897 100.178 -49.3078 27.6445 -2.96466 65.099 7.42112 26.1445 37.9831 7.2217 9.40637 170.019 22.7692 79.2181 -36.0525 -2.96999 0.844257 63.5458 -1.99853 -3.90175 32.922 -2.97472 2.13339 -0.0468981 7.66411 -89.9409 11.5456 -0.065592 0.12453 -0.125297 -0.0600205 0.127282 -22.6604 -0.0999662 0.0990651 -2.64779 -0.0999784 0.0990596 93.141 -49.2886 -96.1197 -1.43716 24.7999 -20.6506 -4.19197 -1.59186 -83.2746 -2.5722 0.973275 4.72084 -90.3576 -44.2389 76.8455 -10.8642 6.49046 -69.5967 4.99914 14.5699 -104.091 16.359 1.77628 1.9722 -23.0458 -20.6936 -13.3073 8.14949 -22.9453 -12.2203 
-46.8731 87.0805 22.3128 95.8763 7.3263 91.4631 -166.644 14.637 100.43 -49.3459 27.873 -2.95415 65.0546 7.30696 26.3837 37.8959 7.20628 9.18579 170.096 22.7177 79.48 -36.1274 -1.43454 0.783863 63.7085 -2.37584 -2.71457 33.0731 -3.10373 2.29651 -0.0276098 7.65115 -89.9498 11.5716 -0.0313579 0.103271 -0.0993798 -0.0267799 0.104541 -22.6345 -0.060945 0.0890731 -2.62186 -0.0609635 0.0890626 93.1149 -49.4629 -96.1294 -1.72939 24.6994 -20.6034 -4.10709 -1.86492 -83.474 -3.15216 0.829389 5.06272 -90.3733 -44.1593 76.8006 -11.0288 6.46961 -69.4809 4.73626 14.7456 -104.309 16.8371 1.82579 2.54479 -22.8313 -20.6947 -12.7618 7.32668 -22.8931 -13.0452 
-46.82 87.0489 22.4131 95.7632 7.4521 91.4864 -166.69 14.7847 100.51 -49.3763 27.8533 -2.93998 65.1197 7.4076 26.1844 37.9162 7.04948 9.56108 170.094 22.7961 79.5365 -36.2443 -2.67079 0.849048 63.7209 -2.18384 -4.06582 33.1255 -3.09054 2.16122 -0.0355379 7.62899 -89.9585 11.6159 -0.0511934 0.0880752 -0.0550352 -0.0472576 0.0902309 -22.5902 -0.0752889 0.0686186 -2.57753 -0.0753067 0.0686062 93.0679 -49.3011 -96.2312 -1.71204 24.5204 -20.4923 -3.79372 -1.9197 -83.6155 -3.66653 0.670265 5.09785 -90.4359 -44.2412 76.7213 -11.058 6.39573 -69.3092 4.80461 14.7464 -104.491 16.8412 1.8456 2.14014 -23.2426 -20.7195 -12.7971 7.72117 -23.0047 -12.9549 
-46.767 87.0375 22.4957 95.603 7.6123 91.3471 -166.747 14.8892 100.407 -49.2792 27.5224 -2.97532 65.1558 7.43704 25.841 38.0029 7.14224 9.62424 170.148 22.9631 79.3849 -36.522 -3.65026 0.784955 63.7677 -2.19321 -4.41981 33.4425 -3.05589 1.49594 -0.0421006 7.61763 -89.9423 11.6387 -0.0566795 0.120828 -0.0322945 -0.051279 0.123192 -22.5674 -0.0903746 0.0982079 -2.55478 -0.0903492 0.0982049 93.1363 -48.8548 -96.2043 -1.06851 24.0588 -20.6584 -4.93195 -1.92271 -83.5671 -4.21044 0.460244 4.72268 -90.3623 -44.0498 76.791 -11.4042 6.32359 -69.6213 5.10011 15.0942 -104.502 17.1424 1.90421 1.92089 -23.1775 -20.7779 -13.0875 7.86432 -23.057 -12.6724 
-46.6468 87.0016 22.5934 95.6034 7.54527 91.3114 -166.69 14.8098 100.499 -49.2357 27.4746 -3.01128 65.2816 7.59009 25.8106 37.9006 7.01089 9.59449 170.246 22.9771 79.481 -36.6971 -3.8764 0.703137 63.8833 -2.30319 -4.94236 33.4073 -3.03307 1.48201 -0.0201801 7.62602 -89.9583 11.6218 -0.02055 0.0851946 -0.0491152 -0.0167773 0.0860069 -22.5843 -0.045211 0.0750707 -2.57161 -0.0452016 0.0750746 93.1341 -48.6298 -96.2482 -1.11183 24.0096 -20.5513 -5.04258 -1.78809 -83.5166 -3.8669 0.481137 3.8755 -90.4237 -44.0642 76.6965 -11.5264 6.19021 -69.9781 4.77284 15.3717 -104.429 17.4322 1.95136 1.9222 -22.861 -20.9169 -12.8305 7.70795 -23.1314 -12.7615 
-46.5301 87.014 22.6646 95.5951 7.71435 91.1237 -166.767 14.6415 100.356 -49.0776 27.552 -2.97734 65.2448 7.58999 25.7433 37.9103 6.88347 9.87748 170.253 23.0072 79.3737 -36.9287 -3.66911 0.609495 64.0396 -2.39582 -4.9933 33.2391 -2.91275 1.38024 -0.0363925 7.61973 -89.9457 11.6344 -0.046911 0.113125 -0.0365426 -0.0418893 0.115076 -22.5717 -0.0787255 0.0937972 -2.55903 -0.078754 0.0937897 93.0117 -48.8046 -96.408 -1.38713 24.3623 -20.4684 -4.1368 -1.85884 -83.6943 -3.23633 0.689108 4.01865 -90.5094 -44.2352 76.6031 -10.9595 6.07373 -70.1909 4.88691 15.2374 -104.327 17.6478 1.95837 2.60876 -22.8146 -20.9693 -12.828 7.93539 -23.1745 -12.5072 
-46.446 87.0027 22.7147 95.6636 7.83821 91.0526 -166.843 14.5395 100.327 -49.1101 27.4352 -2.89192 65.189 7.46324 25.9016 37.9175 7.06238 9.53887 170.216 22.9498 79.3224 -37.1079 -3.94786 0.582524 64.1097 -2.41441 -5.22792 33.4903 -2.93685 1.01739 -0.0540292 7.63345 -89.9503 11.607 -0.0842034 0.107804 -0.0639253 -0.0793313 0.111393 -22.5991 -0.112663 0.0775228 -2.58644 -0.112674 0.0775183 92.8435 -48.6376 -96.7023 -1.22763 24.2372 -20.5828 -5.40944 -2.24118 -83.6318 -3.62369 0.490807 3.28605 -90.4306 -44.2236 76.7255 -10.783 6.20938 -70.401 5.04564 14.9479 -104.181 17.6342 1.97152 2.22405 -22.5435 -20.9599 -12.516 7.80544 -23.092 -12.4145 
-46.3582 86.9485 22.7941 95.5621 8.05068 91.014 -166.917 14.6574 100.324 -49.193 27.7816 -2.82581 65.1692 7.48459 25.8295 38.0347 7.08678 9.82877 170.239 23.1264 79.3191 -37.4887 -4.63808 0.577471 64.1295 -2.21246 -6.15574 33.5513 -2.9724 1.0263 -0.060686 7.62281 -89.9687 11.6283 -0.105981 0.0733867 -0.0426514 -0.102614 0.0779626 -22.5778 -0.123118 0.0381402 -2.5652 -0.123104 0.0381391 92.9906 -48.4525 -96.5057 -1.07745 24.2557 -20.8379 -4.66988 -1.95041 -83.5244 -2.53617 0.772719 2.84751 -90.507 -44.2025 76.5984 -11.0408 5.88059 -70.5458 4.96302 15.4082 -103.974 17.9502 2.01282 2.50416 -22.6702 -20.8707 -12.315 7.9713 -23.0506 -12.679 
-46.2412 86.9394 22.8673 95.475 8.06585 90.9699 -166.912 14.652 100.343 -49.1484 27.9391 -2.83917 65.2097 7.6018 25.8874 37.8781 6.70634 10.1373 170.269 23.2499 79.306 -37.7365 -4.73398 0.537841 64.1964 -2.28057 -6.09664 33.7133 -3.02336 0.906264 -0.0418862 7.60722 -89.973 11.6595 -0.0705305 0.0611455 -0.0114872 -0.067784 0.0641803 -22.5467 -0.0856509 0.0371137 -2.534 -0.085649 0.0371122 93.0251 -48.5535 -96.4331 -1.13054 24.9611 -20.8963 -2.10438 -1.50586 -83.6718 -1.27549 1.30434 4.16092 -90.5819 -44.1544 76.4669 -11.1287 5.61911 -70.6924 4.8621 15.7351 -103.752 18.1879 2.05111 2.53023 -22.9069 -20.8889 -12.3547 7.94449 -23.1212 -12.9097 
-46.133 86.9093 22.9131 95.3589 8.05071 90.8472 -167.026 14.639 100.162 -49.0912 27.3326 -2.80429 65.2259 7.48464 25.8926 37.8445 6.87218 9.71064 170.252 23.3757 79.2219 -37.8417 -5.47314 0.532411 64.3485 -2.38938 -6.83998 33.5098 -2.80542 0.548893 -0.0428178 7.60992 -89.9729 11.654 -0.0726211 0.0616186 -0.0168949 -0.0698415 0.0647485 -22.5521 -0.0877969 0.036941 -2.53942 -0.0877582 0.0369482 93.0446 -48.4669 -96.4184 -1.13483 24.9481 -20.981 -2.77756 -1.59789 -83.7262 -0.642724 1.27311 2.42516 -90.4403 -44.1126 76.6821 -10.9525 5.72919 -70.9425 4.81909 15.5206 -103.781 18.6417 2.13226 2.37649 -22.6624 -20.987 -12.3475 7.84867 -23.1732 -12.867 
-46.032 86.9062 22.99 95.1852 8.02553 90.837 -167.092 14.6922 100.129 -48.9927 26.9363 -2.7763 65.2567 7.48885 25.5131 37.9646 7.00531 9.78973 170.326 23.6652 79.2951 -38.136 -5.25554 0.520704 64.3007 -2.32056 -6.95265 33.5798 -2.89785 0.727528 -0.0471419 7.59017 -89.9791 11.6935 -0.0838795 0.0505022 0.0225921 -0.0815776 0.0541417 -22.5126 -0.095205 0.0229537 -2.49993 -0.0951637 0.0229607 93.0331 -48.5732 -96.4169 -1.30891 24.8325 -21.435 -2.78379 -1.23013 -83.2738 -1.448 1.15943 3.3916 -90.3347 -44.0151 76.8264 -11.2153 5.84379 -70.888 5.09143 15.617 -104.006 19.5123 2.26392 2.818 -22.5384 -20.9584 -12.2791 7.47417 -23.0829 -12.7949 
-45.9045 86.9322 23.0398 95.1981 7.91317 90.6784 -167.053 14.4649 100.053 -48.7523 26.5037 -2.85225 65.2841 7.49905 25.3196 38.0299 7.13248 9.72204 170.346 23.7004 79.1859 -38.2984 -5.41935 0.455 64.3975 -2.46458 -6.83798 33.8994 -2.94137 0.297213 -0.0283954 7.58207 -89.9719 11.7098 -0.0432674 0.0605207 0.0387999 -0.0405752 0.0623654 -22.4964 -0.059462 0.0447156 -2.48371 -0.0594649 0.0447206 92.8614 -48.6261 -96.6765 -1.34267 25.262 -21.1646 -3.28305 -1.74199 -83.6867 -1.1823 1.23546 3.36052 -90.5155 -44.1936 76.5828 -11.1309 5.81 -70.5065 4.99585 15.7881 -104.308 20.242 2.39663 2.30179 -22.8973 -20.7952 -12.3207 7.7001 -23.0034 -12.9279 
-45.7931 86.8973 23.1108 95.2207 8.08807 90.6188 -167.097 14.4115 100.101 -48.7715 26.6529 -2.8114 65.284 7.50026 25.2434 38.0829 7.19114 9.75692 170.233 23.6665 79.171 -38.4758 -5.17788 0.48481 64.6159 -2.66298 -6.88434 33.7926 -2.97918 0.616391 -0.0469313 7.58333 -89.9899 11.7072 -0.0886076 0.0293715 0.0362964 -0.0872094 0.0332319 -22.4989 -0.0933001 0.0013847 -2.48623 -0.0933037 0.00138503 92.9475 -48.2068 -96.6189 -1.171 25.1395 -21.0217 -4.09014 -2.0612 -83.9694 -2.15839 0.933186 3.30359 -90.5558 -44.346 76.557 -10.5739 6.35429 -70.1712 5.06481 14.8826 -104.342 20.1465 2.3832 2.1669 -22.8772 -20.9533 -12.2655 7.88793 -23.1433 -12.6124 
-45.6941 86.8986 23.1788 95.3031 8.224 90.4984 -167.104 14.2247 100.074 -48.6479 26.4876 -2.7581 65.2834 7.59541 25.108 38.1137 7.26767 9.6912 170.184 23.6607 79.083 -38.7763 -5.10148 0.441884 64.6804 -2.6762 -6.83076 33.9577 -3.01337 0.431888 -0.0483165 7.59999 -89.9723 11.6739 -0.083147 0.0638699 0.00298272 -0.0802297 0.0674573 -22.5322 -0.0985114 0.0359278 -2.51955 -0.0984762 0.035929 93.0534 -48.3288 -96.4295 -1.26337 24.7896 -21.2985 -4.2761 -1.54869 -83.2789 -3.6331 0.571604 4.05965 -90.643 -44.3657 76.4233 -10.3513 6.25833 -70.2247 4.90639 15.026 -104.172 20.3863 2.41736 2.48219 -22.9382 -20.9764 -12.4139 7.84298 -23.2068 -12.9191 
